<svg width="137" height="34" viewBox="0 0 137 34" fill="none" xmlns="http://www.w3.org/2000/svg">
<path d="M29.918 24.1578V4.34375H43.0669V8.17597H34.2347V12.2353H41.7605V16.0391H34.2347V24.1578H29.918Z" fill="white"/>
<path d="M46.5312 24.1578V4.34375H60.021V8.17597H50.848V12.2353H58.7146V16.0391H50.848V20.3255H60.021V24.1578H46.5312Z" fill="white"/>
<path d="M63.7695 4.34375H71.2386C76.4925 4.34375 79.9572 7.66501 79.9572 14.2508C79.9572 20.8365 76.4925 24.1578 71.2386 24.1578H63.7695V4.34375ZM71.2386 20.3255C73.7945 20.3255 75.3849 18.9346 75.3849 15.7836V12.7179C75.3849 9.56693 73.7945 8.17597 71.2386 8.17597H68.0863V20.3255H71.2386Z" fill="white"/>
<path d="M94.7251 24.1578L93.3051 19.4455H86.688L85.2681 24.1578H80.8945L87.4264 4.34375H92.7655L99.2122 24.1578H94.7251ZM90.0392 8.26113H89.8972L87.7104 15.7836H92.2543L90.0392 8.26113Z" fill="white"/>
<path d="M106.284 24.1578H101.967V4.34375H111.367C115.031 4.34375 117.359 6.89857 117.359 10.674C117.359 13.3424 116.167 15.4714 113.753 16.3798L117.643 24.1578H112.844L109.379 16.8907H106.284V24.1578ZM110.827 13.2572C112.105 13.2572 112.901 12.5759 112.901 11.2985V10.0495C112.901 8.7721 112.105 8.09081 110.827 8.09081H106.284V13.2572H110.827Z" fill="white"/>
<path d="M121.109 4.34375H130.737C134.003 4.34375 135.962 6.35922 135.962 9.42499C135.962 12.4908 134.287 13.5979 132.27 13.683V13.8533C134.145 13.8533 136.729 15.1024 136.729 18.5088C136.729 21.6313 134.542 24.1578 131.617 24.1578H121.109V4.34375ZM125.426 12.4624H129.714C130.85 12.4624 131.532 11.7811 131.532 10.6456V9.79402C131.532 8.65855 130.85 7.97727 129.714 7.97727H125.426V12.4624ZM125.426 20.5242H130.396C131.532 20.5242 132.242 19.8714 132.242 18.7359V17.7707C132.242 16.6353 131.532 15.9824 130.396 15.9824H125.426V20.5242Z" fill="white"/>
<path d="M7.24416 5.91778H23.3662V4.33008H7.24416C5.3081 4.33008 3.73242 5.90506 3.73242 7.84026C3.73242 9.77546 5.3081 11.3504 7.24416 11.3504C9.18022 11.3504 10.7559 9.77546 10.7559 7.84026H9.16749C9.16749 8.90036 8.30474 9.76273 7.24416 9.76273C6.18359 9.76273 5.32083 8.90036 5.32083 7.84026C5.32083 6.78016 6.18359 5.91778 7.24416 5.91778Z" fill="white"/>
<path d="M7.2448 13.4951C4.12576 13.4951 1.58939 10.9588 1.58939 7.84217C1.58939 4.72549 4.12674 2.18829 7.2448 2.18829H23.3669V0.599609H7.2448C3.25027 0.599609 0 3.84843 0 7.84119C0 11.8339 3.25027 15.0818 7.2448 15.0818C9.53243 15.0818 11.5723 14.0139 12.9012 12.3537V33.0125L14.4896 32.109V7.84119H12.9012C12.9012 10.9588 10.3638 13.4941 7.2448 13.4941" fill="white"/>
<path d="M17.2539 30.4857L18.8423 29.5861V7.8418H17.2539V30.4857Z" fill="white"/>
<path d="M21.8008 7.8418V27.8604L23.3892 26.9647V7.8418H21.8008Z" fill="white"/>
</svg>
